<svg width="50" height="50" viewBox="0 0 50 50" fill="none" xmlns="http://www.w3.org/2000/svg">
<path d="M50.9902 4.88005C62.4302 1.52005 74.7002 1.31005 86.4102 3.28005C104.57 6.74005 122.2 17.4901 130.52 34.4401C135.35 43.8201 135.6 54.6901 134.75 64.9801C134.26 70.9901 132.03 76.7301 128.74 81.7501C124.07 88.7701 127.81 97.7601 124.3 105.18C121 113.57 112.38 118.83 103.54 119.2C103.99 125.77 103.61 133.44 97.9202 137.82C92.7202 142.54 85.3502 141.46 78.9302 141.29C71.9502 141.68 64.9702 141.05 57.9802 141.51C51.8202 142.04 45.3802 138.97 42.4602 133.42C39.8902 129.17 40.4702 124.03 40.4702 119.29C31.9202 118.79 23.5002 113.95 20.0302 105.91C16.0102 98.3801 20.0302 89.05 15.2902 81.8101C12.1502 76.98 9.9002 71.5201 9.3502 65.7601C8.4402 55.7301 8.4502 45.1501 12.8202 35.8501C19.8202 20.2601 34.8702 9.52005 50.9902 4.88005ZM29.4002 27.4101C22.8402 33.8901 18.4202 42.7001 18.0102 51.9901C17.6302 60.0501 17.5302 68.8601 22.2102 75.8301C25.0002 80.0401 26.7702 84.9601 26.8002 90.0301C27.0402 95.3201 26.3202 101.48 30.4602 105.56C33.2202 108.97 37.6402 109.88 41.7802 110.23C44.6902 110.23 46.6602 112.51 48.4802 114.44C51.0202 119.68 47.2302 126.73 51.9302 130.98C55.8002 133.54 61.0902 132.74 65.2502 131.26C69.5302 133.02 74.4802 133.02 78.7602 131.26C83.6802 133.07 91.7302 134.08 94.1402 128.08C95.0302 123.59 93.8202 118.83 95.5102 114.44C96.8802 113.08 98.1502 111.49 99.9602 110.68C102.66 109.94 105.51 110 108.19 109.19C112.03 107.79 115.19 104.53 116.4 100.63C117.95 94.84 116.28 88.6401 118.35 82.9401C119.72 77.9201 123.7 74.0901 124.89 69.0001C126.35 63.1501 126.3 57.0101 125.88 51.0301C125.31 41.3401 120.14 32.3901 113.08 25.9301C101.32 15.0301 84.7702 10.3001 68.9602 11.0001C54.4402 11.6401 39.7102 16.9201 29.4002 27.4101Z" fill="black"/>
<path d="M39.3701 52.64C46.7801 48.93 56.5401 53.81 58.2201 61.87C58.8201 67.59 59.3001 74.37 54.8401 78.79C48.8101 85.6 36.2701 83.69 32.7301 75.22C29.9101 67.51 30.8001 56.32 39.3701 52.64Z" fill="black"/>
<path d="M93.39 52.63C100.81 48.94 110.54 53.83 112.22 61.88C112.76 67.41 113.32 73.85 109.28 78.31C104.13 84.66 93.15 84.43 88.32 77.81C85.06 73.98 85.34 68.72 85.53 64.01C85.71 59.13 88.99 54.62 93.39 52.63Z" fill="black"/>
<path d="M66.4 88.5501C67.94 85.2401 69.04 81.7101 71.01 78.6201C71.51 78.6001 72.51 78.5701 73.01 78.5601C75.37 82.2901 76.63 86.5801 78.51 90.5501C79.73 93.7401 82.17 97.1501 80.4 100.62C74.78 101 69.11 101.06 63.49 100.57C62.18 96.2401 64.86 92.3901 66.4 88.5501Z" fill="black"/>
<path d="M29.3998 27.41C39.7098 16.92 54.4398 11.64 68.9598 11C84.7698 10.3 101.32 15.03 113.08 25.93C120.14 32.39 125.31 41.34 125.88 51.03C126.3 57.01 126.35 63.15 124.89 69C123.7 74.09 119.72 77.92 118.35 82.94C116.28 88.64 117.95 94.84 116.4 100.63C115.19 104.53 112.03 107.79 108.19 109.19C105.51 110 102.66 109.94 99.9598 110.68C98.1498 111.49 96.8798 113.08 95.5098 114.44C93.6798 114.49 91.8598 114.52 90.0398 114.56C90.1398 118.97 89.9698 123.38 89.6598 127.77C86.8898 127.88 84.1098 127.85 81.3298 127.76C80.8998 123.42 80.8398 119.04 81.1698 114.69C79.6198 114.71 78.0798 114.6 76.5498 114.37C76.4798 118.53 76.7898 122.73 76.1998 126.86C73.9898 128.6 70.0198 128.72 67.8898 126.9C67.1498 122.8 67.5298 118.6 67.4298 114.45C66.0098 114.5 64.5898 114.54 63.1698 114.59C63.3098 118.98 63.1498 123.38 62.6598 127.75C59.8798 127.86 57.0998 127.87 54.3298 127.75C53.8598 123.37 53.6798 118.97 53.7998 114.57C52.0298 114.53 50.2598 114.48 48.4798 114.44C46.6598 112.51 44.6898 110.23 41.7798 110.23C37.6398 109.88 33.2198 108.97 30.4598 105.56C26.3198 101.48 27.0398 95.32 26.7998 90.03C26.7698 84.96 24.9998 80.04 22.2098 75.83C17.5298 68.86 17.6298 60.05 18.0098 51.99C18.4198 42.7 22.8398 33.89 29.3998 27.41ZM39.3698 52.64C30.7998 56.32 29.9098 67.51 32.7298 75.22C36.2698 83.69 48.8098 85.6 54.8398 78.79C59.2998 74.37 58.8198 67.59 58.2198 61.87C56.5398 53.81 46.7798 48.93 39.3698 52.64ZM93.3898 52.63C88.9898 54.62 85.7098 59.13 85.5298 64.01C85.3398 68.72 85.0598 73.98 88.3198 77.81C93.1498 84.43 104.13 84.66 109.28 78.31C113.32 73.85 112.76 67.41 112.22 61.88C110.54 53.83 100.81 48.94 93.3898 52.63ZM66.3998 88.55C64.8598 92.39 62.1798 96.24 63.4898 100.57C69.1098 101.06 74.7798 101 80.3998 100.62C82.1698 97.15 79.7298 93.74 78.5098 90.55C76.6298 86.58 75.3698 82.29 73.0098 78.56C72.5098 78.57 71.5098 78.6 71.0098 78.62C69.0398 81.71 67.9398 85.24 66.3998 88.55Z" fill="#F2F2F2"/>
<path d="M48.48 114.44C50.26 114.48 52.03 114.53 53.8 114.57C53.68 118.97 53.86 123.37 54.33 127.75C57.1 127.87 59.88 127.86 62.66 127.75C63.15 123.38 63.31 118.98 63.17 114.59C64.59 114.54 66.01 114.5 67.43 114.45C67.53 118.6 67.15 122.8 67.89 126.9C70.02 128.72 73.99 128.6 76.2 126.86C76.79 122.73 76.48 118.53 76.55 114.37C78.08 114.6 79.62 114.71 81.17 114.69C80.84 119.04 80.9 123.42 81.33 127.76C84.11 127.85 86.89 127.88 89.66 127.77C89.97 123.38 90.14 118.97 90.04 114.56C91.86 114.52 93.68 114.49 95.51 114.44C93.82 118.83 95.03 123.59 94.14 128.08C91.73 134.08 83.68 133.07 78.76 131.26C74.48 133.02 69.53 133.02 65.25 131.26C61.09 132.74 55.8 133.54 51.93 130.98C47.23 126.73 51.02 119.68 48.48 114.44Z" fill="#A6A6A6"/>
</svg>
